TITLE ""
FILE "1Q_t_1710-1719.mp3" MP3
  TRACK 01 AUDIO
    TITLE "1Q_t_1710-1719_01"
    INDEX 01 00:00:00
  TRACK 02 AUDIO
    TITLE "1Q_t_1710-1719_02"
    INDEX 01 00:00:10
  TRACK 03 AUDIO
    TITLE "1Q_t_1710-1719_03"
    INDEX 01 00:01:23
  TRACK 04 AUDIO
    TITLE "1Q_t_1710-1719_04"
    INDEX 01 00:01:33
  TRACK 05 AUDIO
    TITLE "1Q_t_1710-1719_05"
    INDEX 01 00:04:67
  TRACK 06 AUDIO
    TITLE "1Q_t_1710-1719_06"
    INDEX 01 00:05:00
  TRACK 07 AUDIO
    TITLE "1Q_t_1710-1719_07"
    INDEX 01 00:09:35
  TRACK 08 AUDIO
    TITLE "1Q_t_1710-1719_08"
    INDEX 01 00:10:11
  TRACK 09 AUDIO
    TITLE "1Q_t_1710-1719_09"
    INDEX 01 00:11:04
  TRACK 10 AUDIO
    TITLE "1Q_t_1710-1719_10"
    INDEX 01 00:11:16
  TRACK 11 AUDIO
    TITLE "1Q_t_1710-1719_11"
    INDEX 01 00:12:61
  TRACK 12 AUDIO
    TITLE "1Q_t_1710-1719_12"
    INDEX 01 00:12:66
  TRACK 13 AUDIO
    TITLE "1Q_t_1710-1719_13"
    INDEX 01 00:19:04
  TRACK 14 AUDIO
    TITLE "1Q_t_1710-1719_14"
    INDEX 01 00:19:49
  TRACK 15 AUDIO
    TITLE "1Q_t_1710-1719_15"
    INDEX 01 00:20:52
  TRACK 16 AUDIO
    TITLE "1Q_t_1710-1719_16"
    INDEX 01 00:20:62
  TRACK 17 AUDIO
    TITLE "1Q_t_1710-1719_17"
    INDEX 01 00:23:74
  TRACK 18 AUDIO
    TITLE "1Q_t_1710-1719_18"
    INDEX 01 00:24:09
  TRACK 19 AUDIO
    TITLE "1Q_t_1710-1719_19"
    INDEX 01 00:28:50
  TRACK 20 AUDIO
    TITLE "1Q_t_1710-1719_20"
    INDEX 01 00:29:22
  TRACK 21 AUDIO
    TITLE "1Q_t_1710-1719_21"
    INDEX 01 00:30:31
  TRACK 22 AUDIO
    TITLE "1Q_t_1710-1719_22"
    INDEX 01 00:30:41
  TRACK 23 AUDIO
    TITLE "1Q_t_1710-1719_23"
    INDEX 01 00:32:36
  TRACK 24 AUDIO
    TITLE "1Q_t_1710-1719_24"
    INDEX 01 00:32:46
  TRACK 25 AUDIO
    TITLE "1Q_t_1710-1719_25"
    INDEX 01 00:38:01
  TRACK 26 AUDIO
    TITLE "1Q_t_1710-1719_26"
    INDEX 01 00:38:48
  TRACK 27 AUDIO
    TITLE "1Q_t_1710-1719_27"
    INDEX 01 00:39:55
  TRACK 28 AUDIO
    TITLE "1Q_t_1710-1719_28"
    INDEX 01 00:39:65
  TRACK 29 AUDIO
    TITLE "1Q_t_1710-1719_29"
    INDEX 01 00:42:69
  TRACK 30 AUDIO
    TITLE "1Q_t_1710-1719_30"
    INDEX 01 00:43:04
  TRACK 31 AUDIO
    TITLE "1Q_t_1710-1719_31"
    INDEX 01 00:47:63
  TRACK 32 AUDIO
    TITLE "1Q_t_1710-1719_32"
    INDEX 01 00:48:35
  TRACK 33 AUDIO
    TITLE "1Q_t_1710-1719_33"
    INDEX 01 00:49:44
  TRACK 34 AUDIO
    TITLE "1Q_t_1710-1719_34"
    INDEX 01 00:49:56
  TRACK 35 AUDIO
    TITLE "1Q_t_1710-1719_35"
    INDEX 01 00:52:09
  TRACK 36 AUDIO
    TITLE "1Q_t_1710-1719_36"
    INDEX 01 00:52:17
  TRACK 37 AUDIO
    TITLE "1Q_t_1710-1719_37"
    INDEX 01 00:56:25
  TRACK 38 AUDIO
    TITLE "1Q_t_1710-1719_38"
    INDEX 01 00:56:72
  TRACK 39 AUDIO
    TITLE "1Q_t_1710-1719_39"
    INDEX 01 00:57:65
  TRACK 40 AUDIO
    TITLE "1Q_t_1710-1719_40"
    INDEX 01 00:58:00
  TRACK 41 AUDIO
    TITLE "1Q_t_1710-1719_41"
    INDEX 01 01:00:32
  TRACK 42 AUDIO
    TITLE "1Q_t_1710-1719_42"
    INDEX 01 01:00:40
  TRACK 43 AUDIO
    TITLE "1Q_t_1710-1719_43"
    INDEX 01 01:06:68
  TRACK 44 AUDIO
    TITLE "1Q_t_1710-1719_44"
    INDEX 01 01:07:40
  TRACK 45 AUDIO
    TITLE "1Q_t_1710-1719_45"
    INDEX 01 01:08:36
  TRACK 46 AUDIO
    TITLE "1Q_t_1710-1719_46"
    INDEX 01 01:08:45
  TRACK 47 AUDIO
    TITLE "1Q_t_1710-1719_47"
    INDEX 01 01:11:03
  TRACK 48 AUDIO
    TITLE "1Q_t_1710-1719_48"
    INDEX 01 01:11:10
  TRACK 49 AUDIO
    TITLE "1Q_t_1710-1719_49"
    INDEX 01 01:14:66
  TRACK 50 AUDIO
    TITLE "1Q_t_1710-1719_50"
    INDEX 01 01:15:39
  TRACK 51 AUDIO
    TITLE "1Q_t_1710-1719_51"
    INDEX 01 01:16:49
  TRACK 52 AUDIO
    TITLE "1Q_t_1710-1719_52"
    INDEX 01 01:16:60
  TRACK 53 AUDIO
    TITLE "1Q_t_1710-1719_53"
    INDEX 01 01:19:57
  TRACK 54 AUDIO
    TITLE "1Q_t_1710-1719_54"
    INDEX 01 01:19:65
  TRACK 55 AUDIO
    TITLE "1Q_t_1710-1719_55"
    INDEX 01 01:24:40
  TRACK 56 AUDIO
    TITLE "1Q_t_1710-1719_56"
    INDEX 01 01:25:12
  TRACK 57 AUDIO
    TITLE "1Q_t_1710-1719_57"
    INDEX 01 01:26:41
  TRACK 58 AUDIO
    TITLE "1Q_t_1710-1719_58"
    INDEX 01 01:26:49
  TRACK 59 AUDIO
    TITLE "1Q_t_1710-1719_59"
    INDEX 01 01:29:57
  TRACK 60 AUDIO
    TITLE "1Q_t_1710-1719_60"
    INDEX 01 01:29:65
  TRACK 61 AUDIO
    TITLE "1Q_t_1710-1719_61"
    INDEX 01 01:35:17
